<?xml version="1.0" standalone="no"?>
<!DOCTYPE svg PUBLIC "-//W3C//DTD SVG 20010904//EN"
 "http://www.w3.org/TR/2001/REC-SVG-20010904/DTD/svg10.dtd">
<svg version="1.0" xmlns="http://www.w3.org/2000/svg"
 width="284.000000pt" height="66.000000pt" viewBox="0 0 284.000000 66.000000"
 preserveAspectRatio="xMidYMid meet">

<g transform="translate(0.000000,66.000000) scale(0.100000,-0.100000)"
fill="#000000" stroke="none">
<path d="M234 417 c-78 -133 -141 -243 -139 -245 1 -1 35 17 74 40 71 42 74
46 142 164 l70 121 -3 81 -3 81 -141 -242z"/>
<path d="M420 580 l0 -85 73 -123 72 -124 74 -41 75 -41 -21 35 c-11 19 -72
122 -134 229 -153 265 -139 250 -139 150z"/>
<path d="M1091 573 c-18 -15 -28 -54 -61 -238 -22 -121 -40 -226 -40 -233 0
-10 21 -12 87 -10 l88 3 9 48 8 47 88 0 88 0 8 -47 9 -48 88 -3 c74 -2 87 0
87 13 0 23 -68 393 -80 436 -7 25 -17 39 -33 43 -12 3 -90 6 -173 6 -130 0
-155 -3 -173 -17z m210 -78 c4 -16 16 -78 27 -137 l19 -108 -73 0 c-65 0 -74
2 -74 18 0 26 40 243 46 254 13 20 48 3 55 -27z"/>
<path d="M1688 579 c-16 -9 -18 -31 -18 -239 0 -216 1 -230 19 -240 12 -6 109
-10 244 -10 196 0 226 2 238 17 18 20 25 245 10 286 l-11 27 -160 0 -160 0 0
55 0 55 170 2 169 3 -12 25 -13 25 -229 2 c-144 2 -237 -1 -247 -8z m320 -321
l3 -108 -81 0 -80 0 0 110 0 111 78 -3 77 -3 3 -107z"/>
<path d="M2320 356 c0 -278 -5 -266 106 -266 l74 0 0 125 0 126 78 -3 77 -3 3
-123 3 -122 74 0 c110 0 105 -12 105 266 l0 234 -90 0 -89 0 -3 -97 -3 -98
-77 -3 -78 -3 0 101 0 100 -90 0 -90 0 0 -234z"/>
<path d="M192 180 c-35 -21 -66 -41 -69 -44 -4 -3 124 -6 283 -6 l289 0 -75
45 -75 45 -145 -1 -145 -1 -63 -38z"/>
</g>
</svg>
