<svg width="367" height="715" viewBox="0 0 367 715" fill="none" xmlns="http://www.w3.org/2000/svg">
<g clip-path="url(#clip0_31_28)">
<rect width="367" height="715" fill="white"/>
<path d="M363.662 487H324.725L278 574.353L296.912 610.75M363.662 487V528.25L331.4 588.912L296.912 610.75M363.662 487L296.912 610.75M437.087 609.537L456 574.353L409.275 487H371.45H370.337M437.087 609.537L402.6 588.912L370.337 528.25V487M437.087 609.537L370.337 487M433.75 618.029L399.262 596.191H335.85L301.362 618.029M433.75 618.029L415.95 652H320.275L301.362 618.029M433.75 618.029H301.362" stroke="#046E44" stroke-opacity="0.2" stroke-width="2"/>
</g>
<defs>
<clipPath id="clip0_31_28">
<rect width="367" height="715" fill="white"/>
</clipPath>
</defs>
</svg>
