<svg width="360" height="640" viewBox="0 0 360 640" fill="none" xmlns="http://www.w3.org/2000/svg">
<g clip-path="url(#clip0_21_45)">
<rect width="360" height="640" fill="white"/>
<path d="M-5.3375 126H-44.275L-91 213.353L-72.0875 249.75M-5.3375 126V167.25L-37.6 227.912L-72.0875 249.75M-5.3375 126L-72.0875 249.75M68.0875 248.537L87 213.353L40.275 126H2.45H1.3375M68.0875 248.537L33.6 227.912L1.3375 167.25V126M68.0875 248.537L1.3375 126M64.75 257.029L30.2625 235.191H-33.15L-67.6375 257.029M64.75 257.029L46.95 291H-48.725L-67.6375 257.029M64.75 257.029H-67.6375" stroke="#046E44" stroke-opacity="0.2" stroke-width="2"/>
</g>
<defs>
<clipPath id="clip0_21_45">
<rect width="360" height="640" fill="white"/>
</clipPath>
</defs>
</svg>
