<svg width="84" height="70" viewBox="0 0 84 70" fill="none" xmlns="http://www.w3.org/2000/svg">
<path d="M61.5 1H23L2 37L21 69H64L82 37L61.5 1Z" stroke="white" stroke-width="2"/>
<path d="M38.5894 43.9893C38.6252 41.8587 38.8669 40.1758 39.3145 38.9404C39.762 37.7051 40.6751 36.3354 42.0537 34.8315L45.5718 31.2061C47.0757 29.5052 47.8276 27.679 47.8276 25.7275C47.8276 23.8477 47.3353 22.3796 46.3506 21.3232C45.3659 20.249 43.9336 19.7119 42.0537 19.7119C40.2275 19.7119 38.7594 20.1953 37.6494 21.1621C36.5394 22.1289 35.9844 23.4269 35.9844 25.0562H31.0161C31.0519 22.1558 32.0814 19.8193 34.1045 18.0469C36.1455 16.2565 38.7952 15.3613 42.0537 15.3613C45.4375 15.3613 48.0693 16.2744 49.9492 18.1006C51.847 19.9089 52.7959 22.3975 52.7959 25.5664C52.7959 28.6995 51.3457 31.7879 48.4453 34.8315L45.5181 37.7319C44.2111 39.1821 43.5576 41.2679 43.5576 43.9893H38.5894ZM38.3745 52.5024C38.3745 51.6968 38.6162 51.0254 39.0996 50.4883C39.6009 49.9333 40.335 49.6558 41.3018 49.6558C42.2686 49.6558 43.0026 49.9333 43.5039 50.4883C44.0052 51.0254 44.2559 51.6968 44.2559 52.5024C44.2559 53.3081 44.0052 53.9795 43.5039 54.5166C43.0026 55.0358 42.2686 55.2954 41.3018 55.2954C40.335 55.2954 39.6009 55.0358 39.0996 54.5166C38.6162 53.9795 38.3745 53.3081 38.3745 52.5024Z" fill="white"/>
</svg>
