<svg width="30" height="30" viewBox="0 0 30 30" fill="none" xmlns="http://www.w3.org/2000/svg">
<g clip-path="url(#clip0_6_293)">
<path d="M27.5 3.75H2.5C1.125 3.75 0 4.875 0 6.25V23.75C0 25.125 1.125 26.25 2.5 26.25H27.5C28.875 26.25 29.9875 25.125 29.9875 23.75L30 6.25C30 4.875 28.875 3.75 27.5 3.75ZM10 7.5C12.075 7.5 13.75 9.175 13.75 11.25C13.75 13.325 12.075 15 10 15C7.925 15 6.25 13.325 6.25 11.25C6.25 9.175 7.925 7.5 10 7.5ZM17.5 22.5H2.5V21.25C2.5 18.75 7.5 17.375 10 17.375C12.5 17.375 17.5 18.75 17.5 21.25V22.5ZM22.3125 17.5H24.3625L26.25 20L23.7625 22.4875C22.125 21.2625 20.9125 19.5125 20.35 17.5C20.125 16.7 20 15.8625 20 15C20 14.1375 20.125 13.3 20.35 12.5C20.9125 10.475 22.125 8.7375 23.7625 7.5125L26.25 10L24.3625 12.5H22.3125C22.0375 13.2875 21.875 14.125 21.875 15C21.875 15.875 22.0375 16.7125 22.3125 17.5Z" fill="#BC9E28"/>
</g>
<defs>
<clipPath id="clip0_6_293">
<rect width="30" height="30" fill="white"/>
</clipPath>
</defs>
</svg>
