<svg width="107" height="89" viewBox="0 0 107 89" fill="none" xmlns="http://www.w3.org/2000/svg">
<g clip-path="url(#clip0_6_260)">
<rect x="3.08643" y="16" width="98.7692" height="58" fill="#046E44"/>
<path d="M98.0833 11.125H8.91667C4.0125 11.125 0 14.4625 0 18.5417V70.4583C0 74.5375 4.0125 77.875 8.91667 77.875H98.0833C102.988 77.875 106.955 74.5375 106.955 70.4583L107 18.5417C107 14.4625 102.988 11.125 98.0833 11.125ZM35.6667 22.25C43.0675 22.25 49.0417 27.2192 49.0417 33.375C49.0417 39.5308 43.0675 44.5 35.6667 44.5C28.2658 44.5 22.2917 39.5308 22.2917 33.375C22.2917 27.2192 28.2658 22.25 35.6667 22.25ZM62.4167 66.75H8.91667V63.0417C8.91667 55.625 26.75 51.5458 35.6667 51.5458C44.5833 51.5458 62.4167 55.625 62.4167 63.0417V66.75ZM79.5813 51.9167H86.8929L93.625 59.3333L84.7529 66.7129C78.9125 63.0787 74.5879 57.8871 72.5817 51.9167C71.7792 49.5433 71.3333 47.0588 71.3333 44.5C71.3333 41.9412 71.7792 39.4567 72.5817 37.0833C74.5879 31.0758 78.9125 25.9213 84.7529 22.2871L93.625 29.6667L86.8929 37.0833H79.5813C78.6004 39.4196 78.0208 41.9042 78.0208 44.5C78.0208 47.0958 78.6004 49.5804 79.5813 51.9167Z" fill="#BC9E28"/>
</g>
<defs>
<clipPath id="clip0_6_260">
<rect width="107" height="89" fill="white"/>
</clipPath>
</defs>
</svg>
