<svg width="92" height="92" viewBox="0 0 92 92" fill="none" xmlns="http://www.w3.org/2000/svg">
<g clip-path="url(#clip0_120_21)">
<path d="M49.8333 11.5C30.7817 11.5 15.3333 26.9483 15.3333 46H3.83333L18.745 60.9117L19.0133 61.4483L34.5 46H23C23 31.165 34.9983 19.1667 49.8333 19.1667C64.6683 19.1667 76.6667 31.165 76.6667 46C76.6667 60.835 64.6683 72.8333 49.8333 72.8333C42.435 72.8333 35.7267 69.805 30.8967 64.9367L25.4533 70.38C31.7017 76.6283 40.2883 80.5 49.8333 80.5C68.885 80.5 84.3333 65.0517 84.3333 46C84.3333 26.9483 68.885 11.5 49.8333 11.5ZM46 30.6667V49.8333L62.4067 59.57L65.1667 54.9317L51.75 46.9583V30.6667H46Z" fill="#BC9E28"/>
<path d="M49 30.5V48L64 58" stroke="#046E44" stroke-width="7"/>
</g>
<defs>
<clipPath id="clip0_120_21">
<rect width="92" height="92" fill="white"/>
</clipPath>
</defs>
</svg>
