<svg width="84" height="70" viewBox="0 0 84 70" fill="none" xmlns="http://www.w3.org/2000/svg">
<path d="M61.5 1H23L2 37L21 69H64L82 37L61.5 1Z" stroke="white" stroke-width="2"/>
<path d="M20.4357 54.8095L25.9357 62.3095C26.8369 63.2997 27.4673 63.3967 28.9357 62.3095L29.9357 61.3095C30.7828 60.5597 31.3211 60.4101 32.4357 60.8095C35.4196 61.7454 37.1818 62.2289 40.9357 62.8095C43.3661 63.3374 44.6619 63.08 46.9357 62.3095C52.1004 59.8523 54.9448 58.426 59.9357 55.8095C61.3589 54.8944 62.252 54.3395 63.9357 53.3095C64.7411 52.1927 64.7548 51.3871 64.4357 49.8095C63.8325 48.9155 63.0074 48.6106 60.9357 48.3095C57.5306 49.1721 55.4357 49.3095 54.9357 49.8095C54.4357 50.3095 52.4998 52.7164 49.9357 52.8095C47.0068 53.2903 45.3647 53.3868 42.4357 52.8095C41.1579 51.9272 41.3155 51.5019 42.4357 50.8095C47.3727 51.7292 49.57 51.5239 52.4357 49.8095C54.9357 47.8095 54.9357 45.8095 51.4357 44.8095C47.3434 45.115 45.4334 44.9532 42.4357 44.3095C39.7801 43.7846 38.2454 43.912 35.4357 44.8095C32.4529 45.9025 30.7048 46.577 26.9357 48.3095C23.5817 50.1683 22.4405 51.1185 20.4357 52.8095C19.9097 53.5036 19.8023 53.9238 20.4357 54.8095Z" fill="white"/>
<circle cx="42" cy="24" r="15" fill="white"/>
<path d="M48.0968 17.7815C42.6774 14.0178 38.3871 16.9452 36.9816 19.8725C36.1189 21.8798 36.4793 23.8453 36.9816 25.0999C37.4839 26.3544 41.7742 31.1636 48.0968 26.9817M35 32H49" stroke="#CEB862" stroke-width="2.2"/>
</svg>
