<svg width="512" height="430" viewBox="0 0 512 430" fill="none" xmlns="http://www.w3.org/2000/svg">
<path d="M46.2779 307C39.0064 307 31.8467 305.404 25.4662 302.221C14.471 296.733 6.27256 287.295 2.38509 275.652C-1.50237 264.009 -0.615403 251.548 4.88618 240.571C5.11791 240.1 5.3776 239.645 5.66127 239.203L89.4275 107.661C94.3778 99.8904 101.465 93.8435 109.928 90.1738L168.3 64.849C168.719 64.6695 169.143 64.5099 169.57 64.3664C188.4 58.1119 209.036 64.5339 220.926 80.3414C226.012 87.1064 224.646 96.7074 217.874 101.785C211.098 106.867 201.481 105.499 196.391 98.7377C192.547 93.6241 185.939 91.4661 179.798 93.2651L122.153 118.271C119.333 119.491 116.971 121.51 115.317 124.098L32.0465 254.863C30.4643 258.373 30.2686 262.294 31.4911 265.963C32.7896 269.844 35.5224 272.992 39.1902 274.822C43.4492 276.949 49.2105 276.897 54.2206 274.687C58.4077 272.844 61.3723 269.801 62.3511 266.338C64.6564 258.197 73.1385 253.467 81.289 255.768C89.4435 258.07 94.182 266.534 91.8767 274.671C88.4007 286.948 79.1915 297.168 66.6142 302.712C60.1257 305.572 53.1539 307 46.2779 307Z" fill="#BC9E28"/>
<path d="M438.464 208H396.042C393.979 208 391.945 207.541 390.09 206.659L283.594 155.994C276.88 152.798 274.098 144.913 277.384 138.381C280.67 131.849 288.78 129.147 295.494 132.343L399.177 181.668H438.464C445.942 181.668 452.004 187.565 452.004 194.834C452.004 202.106 445.942 208 438.464 208Z" fill="#BC9E28"/>
<path d="M212.506 94.5L276.006 139" stroke="#039F23" stroke-width="19"/>
<path d="M114.006 365L25.47 420.993C23.9809 421.935 22.0898 420.63 22.4412 418.904L44.5056 310.5L271.675 10.5772C272.975 8.86027 275.402 8.48128 277.164 9.71982L338.811 53.0517C341.11 54.6679 341.626 57.8611 339.953 60.1192L198.5 251" stroke="#039F23" stroke-width="17"/>
<path d="M450.552 336.742C446.994 329.262 438.049 326.086 430.564 329.645L409.814 339.52C409.728 339.559 409.638 339.602 409.552 339.645C385.295 351.778 357.791 358.188 330.017 358.188C302.896 358.188 275.74 351.778 251.478 339.645L231.728 329.774C231.513 329.664 231.295 329.567 231.076 329.473C230.939 329.41 230.799 329.352 230.658 329.293C230.345 329.164 230.025 329.051 229.705 328.946C229.56 328.899 229.412 328.852 229.267 328.809C228.881 328.696 228.494 328.59 228.103 328.508C228.021 328.492 227.935 328.481 227.853 328.465C227.486 328.395 227.119 328.34 226.752 328.297C226.642 328.282 226.537 328.27 226.431 328.258C225.994 328.219 225.552 328.196 225.115 328.192C225.084 328.192 225.052 328.188 225.021 328.188H120.029C103.486 328.188 90.0291 314.731 90.0291 298.188C90.0291 281.649 103.486 268.192 120.029 268.192H212.595C243.959 268.192 273.447 255.977 295.623 233.801C301.482 227.942 301.482 218.446 295.623 212.586C289.767 206.731 280.271 206.731 274.412 212.586C257.9 229.098 235.947 238.192 212.595 238.192H120.029C86.947 238.192 60.033 265.11 60.033 298.192C60.033 321.653 73.5759 342 93.2517 351.856C91.24 354.407 90.0291 357.621 90.0291 361.125V373.184C90.0291 397.996 110.217 418.184 135.025 418.184C146.541 418.184 157.06 413.836 165.025 406.696C172.99 413.836 183.51 418.184 195.025 418.184C219.834 418.184 240.021 397.996 240.021 373.184V367.442C267.924 381.02 298.99 388.184 330.017 388.184C362.373 388.184 394.467 380.699 422.834 366.543L443.455 356.731C450.935 353.172 454.115 344.223 450.552 336.742ZM135.025 388.188C126.756 388.188 120.029 381.457 120.029 373.188V361.125C120.029 360.117 119.924 359.133 119.736 358.18C119.834 358.18 119.931 358.188 120.029 358.188H150.025V373.188C150.025 381.457 143.299 388.188 135.025 388.188ZM195.025 388.188C186.752 388.188 180.025 381.457 180.025 373.188V358.188H210.021V373.188C210.021 381.457 203.295 388.188 195.025 388.188Z" fill="#BC9E28"/>
<path d="M437.01 418.184C434.267 418.184 431.533 417.434 429.127 415.946C424.701 413.211 422.01 408.383 422.01 403.184V193.196C422.01 184.914 428.728 178.196 437.01 178.196H497.006C505.291 178.196 512.006 184.914 512.006 193.196V373.188C512.006 378.867 508.795 384.063 503.717 386.602L443.717 416.602C441.599 417.66 439.302 418.184 437.01 418.184ZM452.01 208.196V378.914L482.01 363.918V208.196H452.01ZM497.006 373.188H497.017H497.006Z" fill="#E3AD0A"/>
</svg>
