<svg width="109" height="66" viewBox="0 0 109 66" fill="none" xmlns="http://www.w3.org/2000/svg">
<path fill-rule="evenodd" clip-rule="evenodd" d="M9.52751 1H99.4725C104.55 2.48461 106.438 4.04934 108 8.22865V58.3003C106.53 62.511 104.759 63.9391 100.082 65H9.52751C4.78658 64.0306 2.86909 62.6217 1 58.3003V8.22865C2.37387 3.96033 4.4634 2.54504 9.52751 1ZM101.503 56.7135V9.46281C100.989 7.67793 100.24 7.17918 98.2543 6.99449H10.3397C8.72762 7.37228 8.17713 7.94074 7.70019 9.46281V56.5372C7.89597 58.2843 8.50654 58.9048 10.5427 59.3581H99.0664C100.798 58.8026 101.311 58.2113 101.503 56.7135Z" fill="#046E44"/>
<path fill-rule="evenodd" clip-rule="evenodd" d="M14.4004 12.8127H47.9013V53.5399H14.4004V12.8127ZM40.389 23.5675C37.6162 20.0919 35.5842 18.994 31.0493 18.6309C26.3526 19.117 24.4738 20.289 22.1157 23.5675C20.5515 27.1357 20.6992 29.0262 22.7249 32.2066C25.2092 34.884 26.9613 35.8714 31.0493 36.2617C34.941 35.8454 36.891 35.129 39.5769 32.2066C41.5446 29.5458 41.6738 27.6335 40.389 23.5675ZM38.9677 41.9036H23.334C19.7663 42.6849 18.4082 43.4728 17.649 45.7824V50.5427H44.4497V45.7824C43.7427 43.3735 42.3335 42.6544 38.9677 41.9036Z" fill="#046E44"/>
<path d="M54.6015 18.6309H88.1025V24.449H54.6015V18.6309Z" fill="#046E44"/>
<path d="M54.6015 30.2672H88.1025V36.0854H54.6015V30.2672Z" fill="#046E44"/>
<path d="M54.6015 41.9036H88.1025V47.7218H54.6015V41.9036Z" fill="#046E44"/>
<path fill-rule="evenodd" clip-rule="evenodd" d="M9 1H100C105.621 2.17753 107.117 3.86971 108 8V58.5C107.024 62.8877 105.092 64.1567 100 65H10.5C4.20989 65.207 1.30102 63.3413 1 58.5V8C2.61648 3.51127 4.37458 1.99365 9 1ZM98.5 7H10.5C8.68668 7.22537 7.8847 7.63342 7.5 9.5V57.5C7.93768 59.0643 8.62988 59.4645 10.5 59.5H98.5C100.089 59.2726 100.797 58.9013 101.5 57.5V9.5C101.047 7.7584 100.348 7.25426 98.5 7Z" fill="#BD9E27" stroke="#BC9E28"/>
</svg>
