<svg width="73" height="85" viewBox="0 0 73 85" fill="none" xmlns="http://www.w3.org/2000/svg">
<path d="M0.712711 70.6869L9.70888 83.6526C11.1828 85.3643 12.214 85.532 14.6159 83.6526L16.2515 81.9238C17.6371 80.6275 18.5175 80.369 20.3407 81.0594C25.2213 82.6774 28.1037 83.5132 34.2439 84.5169C38.2191 85.4296 40.3386 84.9845 44.0579 83.6526C52.5055 79.4047 57.158 76.9389 65.3215 72.4157C67.6493 70.8337 69.1101 69.8744 71.8642 68.0938C73.1816 66.1632 73.2039 64.7704 72.682 62.0432C71.6953 60.4976 70.3458 59.9705 66.9572 59.45C61.3876 60.9414 57.961 61.1788 57.1432 62.0432C56.3254 62.9075 53.1588 67.0686 48.9649 67.2294C44.1741 68.0606 41.4881 68.2274 36.6974 67.2294C34.6073 65.7041 34.865 64.9689 36.6974 63.7719C44.7726 65.3618 48.3667 65.0069 53.054 62.0432C57.1432 58.5857 57.1432 55.1282 51.4184 53.3994C44.7247 53.9276 41.6005 53.6478 36.6974 52.535C32.3536 51.6277 29.8433 51.8478 25.2477 53.3994C20.3689 55.289 17.5094 56.455 11.3445 59.45C5.85839 62.6635 3.99189 64.3061 0.712711 67.2294C-0.147701 68.4294 -0.323388 69.1559 0.712711 70.6869Z" fill="#046E44"/>
<ellipse cx="36" cy="24.5" rx="25" ry="24.5" fill="#BC9E28"/>
<path d="M47.3226 11.229C37.2581 4.40733 29.2903 9.71311 26.6801 15.0189C25.078 18.6571 25.7473 22.2196 26.6801 24.4935C27.6129 26.7674 35.5806 35.4841 47.3226 27.9044M23 37H49" stroke="white" stroke-width="4"/>
</svg>
