<svg width="66" height="67" viewBox="0 0 66 67" fill="none" xmlns="http://www.w3.org/2000/svg">
<g clip-path="url(#clip0_120_27)">
<path d="M52.25 8.375H40.755C39.6 5.13666 36.575 2.79166 33 2.79166C29.425 2.79166 26.4 5.13666 25.245 8.375H13.75C10.725 8.375 8.25 10.8875 8.25 13.9583V53.0417C8.25 56.1125 10.725 58.625 13.75 58.625H52.25C55.275 58.625 57.75 56.1125 57.75 53.0417V13.9583C57.75 10.8875 55.275 8.375 52.25 8.375ZM33 8.375C34.5125 8.375 35.75 9.63125 35.75 11.1667C35.75 12.7021 34.5125 13.9583 33 13.9583C31.4875 13.9583 30.25 12.7021 30.25 11.1667C30.25 9.63125 31.4875 8.375 33 8.375ZM38.5 47.4583H19.25V41.875H38.5V47.4583ZM46.75 36.2917H19.25V30.7083H46.75V36.2917ZM46.75 25.125H19.25V19.5417H46.75V25.125Z" fill="#BC9E28"/>
<path d="M47 19.5H19V25.5H47V19.5Z" fill="#046E44"/>
<path d="M47 30.5H19V36.5H47V30.5Z" fill="#046E44"/>
<path d="M39 41.5H19V47.5H39V41.5Z" fill="#046E44"/>
</g>
<defs>
<clipPath id="clip0_120_27">
<rect width="66" height="67" fill="white"/>
</clipPath>
</defs>
</svg>
